<?xml version="1.0" encoding="UTF-8"?>
<svg version="1.1" xmlns="http://www.w3.org/2000/svg" width="32" height="32">
<path d="M0 0 C7.32732733 0.6006006 7.32732733 0.6006006 10 2.1875 C11.44822131 4.81240112 11.19588639 7.06170416 11 10 C11.53625 10.20625 12.0725 10.4125 12.625 10.625 C15.96025621 12.5559378 18.76334386 14.83462851 21 18 C20.875 20.875 20.875 20.875 20 23 C18.234375 23.68359375 18.234375 23.68359375 16 24 C14.078125 22.78515625 14.078125 22.78515625 12.25 21.0625 C11.63640625 20.49660156 11.0228125 19.93070313 10.390625 19.34765625 C9.93171875 18.90292969 9.4728125 18.45820313 9 18 C9.309375 19.60875 9.309375 19.60875 9.625 21.25 C9.9876191 24.87619096 9.98362069 26.08291076 8 29 C7.01 29 6.02 29 5 29 C5 29.66 5 30.32 5 31 C1.80876679 32.00295901 0.4238722 32.18729237 -2.6875 30.8125 C-5.08803999 28.93099568 -6.04519417 27.8644175 -7 25 C-7 23.68 -7 22.36 -7 21 C-6.34 21 -5.68 21 -5 21 C-5 20.01 -5 19.02 -5 18 C-4.01 18 -3.02 18 -2 18 C-2 17.01 -2 16.02 -2 15 C-1.01 15 -0.02 15 1 15 C0.360625 14.46375 -0.27875 13.9275 -0.9375 13.375 C-3.38529404 10.55632807 -3.66714612 8.66139268 -4 5 C-1.03 5.495 -1.03 5.495 2 6 C1.34 4.02 0.68 2.04 0 0 Z M5 14 C4.67 14.66 4.34 15.32 4 16 C5.32 16.33 6.64 16.66 8 17 C7.01 16.01 6.02 15.02 5 14 Z M1 22 C1 22.99 1 23.98 1 25 C1.66 24.01 2.32 23.02 3 22 C2.34 22 1.68 22 1 22 Z " fill="#BBBBBB" transform="translate(9,0)"/>
<path d="M0 0 C5.34019502 0.34452871 5.34019502 0.34452871 8 1 C9.5625 2.8125 9.5625 2.8125 10 5 C9.6875 7.0625 9.6875 7.0625 9 9 C8.67 9.99 8.34 10.98 8 12 C7.01 12 6.02 12 5 12 C5 12.66 5 13.32 5 14 C2.69 13.34 0.38 12.68 -2 12 C-2 11.34 -2 10.68 -2 10 C-2.66 9.67 -3.32 9.34 -4 9 C-3.67 8.34 -3.34 7.68 -3 7 C-3.66 6.67 -4.32 6.34 -5 6 C-3 4 -3 4 0 3 C0 2.01 0 1.02 0 0 Z M1 5 C1 5.99 1 6.98 1 8 C1.66 7.01 2.32 6.02 3 5 C2.34 5 1.68 5 1 5 Z " fill="#8B8B8B" transform="translate(9,17)"/>
<path d="M0 0 C1.6875 1.5625 1.6875 1.5625 3 3 C-0.01031744 3.93423645 -0.86650268 4.04449911 -4 3 C-6.18911155 5.13034253 -6.18911155 5.13034253 -8 8 C-7.86382428 11.24293584 -7.86382428 11.24293584 -7 14 C-5.68 14.33 -4.36 14.66 -3 15 C-3 15.66 -3 16.32 -3 17 C-6.60313574 16.11923349 -8.5396479 15.58311266 -10.875 12.625 C-12 10 -12 10 -12 6 C-11.34 6 -10.68 6 -10 6 C-10 5.01 -10 4.02 -10 3 C-9.01 3 -8.02 3 -7 3 C-7 2.01 -7 1.02 -7 0 C-3.98968256 -0.93423645 -3.13349732 -1.04449911 0 0 Z " fill="#313131" transform="translate(14,15)"/>
<path d="M0 0 C0.99 0.66 1.98 1.32 3 2 C2.01 4.64 1.02 7.28 0 10 C2.31 9.34 4.62 8.68 7 8 C7 8.99 7 9.98 7 11 C6.34 11 5.68 11 5 11 C5 11.99 5 12.98 5 14 C2.69 13.34 0.38 12.68 -2 12 C-2 11.34 -2 10.68 -2 10 C-2.66 9.67 -3.32 9.34 -4 9 C-3.67 8.34 -3.34 7.68 -3 7 C-3.66 6.67 -4.32 6.34 -5 6 C-3 4 -3 4 0 3 C0 2.01 0 1.02 0 0 Z " fill="#C0C0C0" transform="translate(9,17)"/>
<path d="M0 0 C3.12568906 0.36065643 4.81321032 1.55668248 7.125 3.5625 C9.62604873 6.21556175 9.62604873 6.21556175 12 6 C12 6.99 12 7.98 12 9 C9.9375 9.9375 9.9375 9.9375 7 10 C4.278343 8.00374332 1.98855433 5.72781516 0 3 C0 2.01 0 1.02 0 0 Z " fill="#C7B39C" transform="translate(16,11)"/>
<path d="M0 0 C0.48210938 0.42152344 0.96421875 0.84304688 1.4609375 1.27734375 C2.09257812 1.82519531 2.72421875 2.37304688 3.375 2.9375 C4.00148438 3.48277344 4.62796875 4.02804688 5.2734375 4.58984375 C8.18579174 6.96848602 9.0060336 7 13 7 C13.33 6.01 13.66 5.02 14 4 C14.625 6.375 14.625 6.375 15 9 C14.34 9.66 13.68 10.32 13 11 C8.65367229 10.76214127 6.63955298 9.13686026 3.6875 6.0625 C2.99011719 5.35222656 2.29273438 4.64195313 1.57421875 3.91015625 C0 2 0 2 0 0 Z " fill="#515151" transform="translate(15,13)"/>
<path d="M0 0 C2.64 0.33 5.28 0.66 8 1 C7.01 1.66 6.02 2.32 5 3 C5.33 4.32 5.66 5.64 6 7 C4.68 7.99 3.36 8.98 2 10 C1.34 9.01 0.68 8.02 0 7 C0.66 6.67 1.32 6.34 2 6 C1.34 4.02 0.68 2.04 0 0 Z " fill="#343434" transform="translate(9,0)"/>
<path d="M0 0 C0.33 0 0.66 0 1 0 C1 1.98 1 3.96 1 6 C1.5775 6.226875 2.155 6.45375 2.75 6.6875 C5.5663661 8.33038023 7.08077114 10.39533227 9 13 C8.01 13.33 7.02 13.66 6 14 C0.21564482 9.17970402 0.21564482 9.17970402 -0.3984375 5.8203125 C-0.375 3.625 -0.375 3.625 0 0 Z " fill="#777573" transform="translate(19,4)"/>
<path d="M0 0 C1.32 0.33 2.64 0.66 4 1 C4.144375 1.94875 4.28875 2.8975 4.4375 3.875 C4.82935399 6.8934494 4.82935399 6.8934494 6 9 C3.5067466 8.00269864 2.22532561 7.34925469 0.75 5.0625 C0 3 0 3 0 0 Z " fill="#232323" transform="translate(5,5)"/>
<path d="M0 0 C0.99 0 1.98 0 3 0 C3 1.65 3 3.3 3 5 C1.35 5.33 -0.3 5.66 -2 6 C-1.34 4.02 -0.68 2.04 0 0 Z " fill="#323232" transform="translate(11,21)"/>
<path d="M0 0 C0.99 0.66 1.98 1.32 3 2 C2.01 4.31 1.02 6.62 0 9 C-1 7 -2 5 -3 3 C-2.01 3 -1.02 3 0 3 C0 2.01 0 1.02 0 0 Z " fill="#AAAAAA" transform="translate(9,17)"/>
<path d="M0 0 C0.99 0.33 1.98 0.66 3 1 C3 1.66 3 2.32 3 3 C4.32 3.33 5.64 3.66 7 4 C7 4.66 7 5.32 7 6 C4.0625 5.25 4.0625 5.25 1 4 C0.125 1.875 0.125 1.875 0 0 Z " fill="#4E4E4E" transform="translate(4,26)"/>
<path d="M0 0 C0.66 0 1.32 0 2 0 C2 0.99 2 1.98 2 3 C1.34 3 0.68 3 0 3 C0 3.99 0 4.98 0 6 C-0.99 5.67 -1.98 5.34 -3 5 C-1.125 1.125 -1.125 1.125 0 0 Z " fill="#ADADAD" transform="translate(14,25)"/>
</svg>
